<svg width="52" height="52" viewBox="0 0 52 52" fill="none" xmlns="http://www.w3.org/2000/svg">
<circle cx="26" cy="26" r="25" fill="#FFE457" stroke="black" stroke-width="2"/>
<circle cx="26" cy="26" r="20.125" fill="black"/>
<path fill-rule="evenodd" clip-rule="evenodd" d="M49 26C49 38.7017 38.7017 49 26 49C13.2982 49 3 38.7017 3 26C3 13.2982 13.2982 3 26 3C38.7017 3 49 13.2982 49 26ZM26.8242 19.9797C24.5874 20.9093 20.1158 22.8356 13.4113 25.7566C12.3227 26.1898 11.7515 26.6133 11.6997 27.0273C11.6116 27.7288 12.4894 28.0048 13.6816 28.3786C13.8445 28.4303 14.0132 28.4821 14.1857 28.5396C15.3606 28.921 16.9399 29.3676 17.7603 29.3848C18.5058 29.4002 19.3377 29.0935 20.2558 28.4648C26.5194 24.2348 29.7528 22.0977 29.956 22.0517C30.0997 22.0191 30.2991 21.9769 30.4332 22.0977C30.5674 22.2165 30.554 22.4427 30.5406 22.504C30.4524 22.8739 27.0139 26.0728 25.2314 27.7288C24.6756 28.2444 24.2827 28.6105 24.2022 28.6948C24.022 28.8807 23.838 29.059 23.6617 29.2296C22.5692 30.2799 21.7527 31.0696 23.7077 32.3576C24.6468 32.9767 25.3982 33.4884 26.1476 33.9983C26.966 34.556 27.7825 35.1118 28.8405 35.8057C29.1088 35.982 29.3657 36.1641 29.6168 36.3423C30.5693 37.0228 31.4261 37.6322 32.4841 37.5364C33.0974 37.4789 33.7337 36.902 34.0557 35.1789C34.8167 31.1041 36.3155 22.2798 36.6624 18.6419C36.6835 18.3399 36.6707 18.0364 36.6241 17.7372C36.5962 17.4956 36.4785 17.2733 36.2944 17.1143C36.0203 16.8901 35.5948 16.8422 35.4032 16.846C34.5387 16.8613 33.2124 17.3232 26.8242 19.9797Z" fill="#FFE457"/>
</svg>
